PathFileType	4	(X/Y/Z)	C:\Users\WrightLab\Desktop\Jo\P5V127.trc
DataRate	CameraRate	NumFrames	NumMarkers	Units	OrigDataRate	OrigDataStartFrame	OrigNumFrames
100.00	100.00	       15	19	mm	100.00	80	       636
Frame#	Time	Headset_Front			Headset_Back			Headset_Left			Headset_Right			Left_Shoulder			Right_Shoulder			Sternum			C7			Left Elbow			Right Elbow			Left Wrist			Right Wrist			Left ASIS			Right ASIS			S2			Left Knee			Right Knee			Left Ankle			Right Ankle			
		X1	Y1	Z1	X2	Y2	Z2	X3	Y3	Z3	X4	Y4	Z4	X5	Y5	Z5	X6	Y6	Z6	X7	Y7	Z7	X8	Y8	Z8	X9	Y9	Z9	X10	Y10	Z10	X11	Y11	Z11	X12	Y12	Z12	X13	Y13	Z13	X14	Y14	Z14	X15	Y15	Z15	X16	Y16	Z16	X17	Y17	Z17	X18	Y18	Z18	X19	Y19	Z19	

80	0.790	133.14880	1638.89148	-930.69745	-77.30502	1612.27979	-836.82349										4.47491	1306.31079	-938.97839				-65.41077	1518.13525	-1126.15320	266.95877	1200.11377	-1159.46021	-316.09317	1185.37866	-963.40002	272.76740	1031.55420	-995.71832	-231.71722	999.78864	-815.41583	113.06175	905.27325	-999.19336	-148.97443	937.98859	-925.10577	-62.33378	969.58350	-1236.97119	186.16502	504.28583	-1028.68262	-217.55270	469.41391	-995.29590	236.47273	108.17110	-1069.88721	-216.43867	73.43811	-1116.65356	
81	0.800	136.98186	1638.26892	-926.75031	-73.84589	1611.70447	-834.05585										8.58087	1305.63928	-936.28998				-61.67174	1517.33557	-1122.00879	269.67911	1199.31323	-1157.65833	-312.88596	1185.22485	-959.08112	277.66541	1030.04358	-994.14764	-226.25038	999.61554	-812.09454	117.31842	904.80695	-997.69873	-144.95879	937.69550	-921.94006	-59.17767	969.14642	-1233.65198	193.36255	503.59262	-1026.85095	-215.64604	470.02472	-993.32404	247.66673	109.07564	-1057.76917	-216.38802	73.47104	-1116.65137	
82	0.810	140.53978	1638.39233	-924.53491	-70.32870	1611.32666	-831.63110										12.10976	1304.83630	-934.09711				-58.00920	1517.04810	-1119.50684	273.50974	1199.96204	-1156.28357	-307.30539	1184.04150	-956.04156	281.44135	1029.07629	-992.65588	-221.88113	999.16217	-808.89258	120.56776	904.56256	-995.92047	-142.76894	937.81561	-920.04730	-56.10038	968.71680	-1231.55835	200.06529	503.05112	-1025.15491	-212.92368	469.48981	-990.98206	257.24509	106.79107	-1054.41711	-216.19377	73.58958	-1116.91370	
83	0.820	144.66692	1637.80237	-920.42047	-66.48942	1611.41528	-828.80188										16.82541	1304.62769	-929.93542				-54.13608	1516.62390	-1116.75623	277.72327	1198.79443	-1155.17297	-303.72562	1183.68005	-952.15979	286.97769	1028.28662	-990.43927	-216.68861	998.99115	-806.00299	125.54675	903.73712	-993.15350	-137.88060	936.61853	-917.11609	-52.43901	968.58167	-1228.72546	207.69173	502.22379	-1024.01990	-208.74750	469.11176	-988.75427	266.46155	107.64363	-1046.30591	-215.80898	74.14001	-1116.59973	
84	0.830	148.64713	1637.81470	-916.97852	-62.68253	1610.73816	-825.93408										22.13898	1303.48279	-928.57983				-49.67136	1515.69897	-1112.07678	281.52051	1198.27563	-1151.67834	-299.03683	1182.92041	-948.30048	291.69565	1027.50476	-989.21698	-210.24872	997.46283	-802.29175	128.61592	903.59570	-996.75690	-132.94577	935.99237	-913.17273	-48.78946	968.10876	-1226.03967	214.30199	501.62753	-1022.20825	-207.17014	468.66003	-986.22797	276.02908	105.65114	-1040.39563	-215.79262	74.16441	-1116.60120	
85	0.840	152.85457	1637.40588	-913.48645	-58.91762	1610.19995	-823.76477										27.18000	1302.54224	-924.95471				-45.44115	1515.93127	-1109.91113	285.83313	1197.65063	-1149.42090	-293.72150	1182.29761	-944.76428	297.22943	1026.90771	-986.81091	-204.92815	997.20306	-799.06140	135.25084	902.44073	-988.75574	-129.52844	935.44592	-908.24493	-44.68630	967.76208	-1223.12488	221.56572	500.97226	-1021.58228	-203.30540	468.19946	-984.64496	283.75793	105.49335	-1035.98608	-215.53867	74.68529	-1115.90344	
86	0.850	157.11270	1637.06702	-910.05988	-54.85032	1609.71179	-820.78271										31.57808	1302.19446	-922.23737				-40.92298	1514.91406	-1106.60425	290.32150	1196.75122	-1147.15430	-288.13675	1181.11255	-940.67621	302.04407	1026.32275	-984.81000	-199.11023	996.42017	-795.89380	141.22556	901.34552	-984.32288	-125.07238	934.45795	-905.82190	-40.50311	967.18085	-1220.42871	229.34264	500.19501	-1020.56549	-200.10049	468.50348	-981.74048	293.68680	104.05317	-1029.81848	-215.27800	75.04294	-1115.80969	
87	0.860	161.36685	1636.83301	-906.91962	-50.68784	1609.22949	-817.98029										37.14666	1301.08569	-918.67157				-36.17176	1514.30493	-1103.36511	295.07379	1196.48499	-1144.64587	-283.57611	1180.64929	-937.23413	307.97803	1025.71008	-982.37854	-193.34540	995.85980	-792.70679	144.97459	900.47858	-981.79749	-119.35607	933.75262	-901.82440	-36.07816	966.65198	-1217.51270	236.36086	499.04465	-1018.88983	-196.66737	468.19989	-979.63928	300.83963	102.74422	-1024.28552	-214.95993	75.77010	-1115.57764	
88	0.870	166.13190	1636.28003	-902.85907	-46.50581	1608.73462	-815.67090										42.08242	1300.10205	-915.44983				-31.28101	1513.66443	-1100.14526	300.00238	1195.82568	-1141.64551	-277.49973	1179.71021	-933.20209	312.68143	1025.30457	-980.48309	-187.38547	995.02740	-789.13770	150.43596	899.93439	-978.99683	-115.98515	933.45117	-898.60236	-31.25350	965.90009	-1213.98987	243.47246	497.95514	-1016.80499	-193.63628	467.55466	-976.43951	307.79895	100.96796	-1020.73090	-213.64322	75.39742	-1115.89478	
89	0.880	170.84695	1635.95459	-898.78851	-42.21630	1608.25964	-812.84973										47.36739	1299.85071	-912.52283				-26.20792	1512.78784	-1097.04578	304.98117	1195.28088	-1139.46814	-272.24384	1179.18604	-929.96820	319.23068	1024.76306	-978.09302	-181.38538	994.38397	-785.86804	156.35757	899.19958	-975.37146	-109.98592	933.12280	-894.20868	-26.37649	965.47760	-1211.07935	250.51651	497.04312	-1014.95111	-188.83087	467.05313	-973.22540	315.63028	100.26517	-1014.92999	-213.56448	75.45442	-1115.89233	
90	0.890	175.60638	1635.31946	-895.50836	-37.69441	1607.47595	-809.81439										53.62016	1299.48999	-910.15845				-20.68652	1512.26746	-1093.06238	310.85648	1194.83069	-1136.66211	-266.88016	1178.26050	-926.61298	325.33417	1024.30383	-974.56067	-175.59891	993.45801	-782.56238	162.67439	897.97668	-972.29279	-103.82301	931.98840	-890.95532	-21.58757	964.90918	-1208.97583	257.49448	496.13782	-1013.23578	-185.37206	465.20041	-970.38354	320.84375	97.73944	-1012.45062	-213.12416	76.03861	-1115.81824	
91	0.900	180.60950	1634.93420	-891.79468	-33.12885	1606.71155	-807.06226										59.36008	1298.98474	-906.05847				-15.35756	1511.24841	-1090.22852	316.68338	1194.55945	-1134.11121	-260.09476	1176.68896	-923.63293	331.52380	1023.47394	-972.26343	-168.69020	992.23193	-778.19745	167.90094	897.34979	-969.31030	-99.04876	931.10791	-886.93201	-16.22279	963.97522	-1205.27893	264.26917	495.75833	-1011.73749	-180.53125	465.17465	-966.46698	327.29044	98.47105	-1007.16028	-211.81404	76.27960	-1115.35693	
92	0.910	185.51321	1634.69263	-888.48169	-28.42190	1605.83142	-803.88123										65.40189	1298.24170	-902.26086				-9.67740	1510.10938	-1086.61902	322.67990	1194.26331	-1131.15503	-254.22371	1175.74463	-919.95258	337.40784	1022.69147	-968.81891	-161.87029	992.35614	-775.21051	173.82347	896.77783	-965.97711	-92.26797	930.85645	-883.71790	-10.78619	962.91895	-1201.64417	270.35159	493.97049	-1009.07184	-176.96071	465.48956	-962.34808	332.03906	96.83092	-1005.40802	-210.36548	77.17336	-1115.21851	
93	0.920	190.90332	1633.80261	-883.92810	-23.54223	1605.41980	-801.50281										70.87702	1297.13171	-897.95557				-3.77556	1509.25867	-1083.17407	328.53735	1193.61768	-1127.92358	-247.71245	1174.27527	-916.87756	344.11197	1022.58044	-965.45294	-155.05707	991.15686	-771.10883	178.79289	895.28143	-969.33478	-85.66590	929.67499	-879.08929	-5.16470	961.55597	-1198.07886	275.94574	491.68616	-1006.27490	-171.81111	463.73816	-959.55176	337.66873	94.92342	-1002.71893	-210.14209	77.20142	-1115.18994	
94	0.930	196.18434	1633.17358	-880.05426	-18.63015	1604.28760	-798.54889										77.46260	1295.55774	-894.71552				2.06738	1507.69507	-1079.98450	335.23752	1192.35107	-1124.65369	-240.60286	1173.20337	-912.89154	350.89917	1022.65985	-961.97064	-148.14400	990.21301	-767.59955	185.46466	896.06293	-963.64087	-80.76701	928.85089	-875.69836	0.71447	960.07770	-1194.03625	281.69617	490.52667	-1002.99408	-166.52896	463.47729	-955.75763	339.63159	92.87879	-1002.59381	-209.76508	77.87653	-1115.43201	
